<svg width="24" height="24" viewBox="0 0 24 24" fill="none" xmlns="http://www.w3.org/2000/svg">
  <!-- Gradiente para o documento -->
  <defs>
    <linearGradient id="docGradient" x1="0%" y1="0%" x2="100%" y2="100%">
      <stop offset="0%" style="stop-color:#8F3FF7;stop-opacity:1" />
      <stop offset="100%" style="stop-color:#6B46C1;stop-opacity:1" />
    </linearGradient>
    <linearGradient id="checkGradient" x1="0%" y1="0%" x2="100%" y2="100%">
      <stop offset="0%" style="stop-color:#B9FF66;stop-opacity:1" />
      <stop offset="100%" style="stop-color:#22C55E;stop-opacity:1" />
    </linearGradient>
  </defs>
  
  <!-- Sombra do documento -->
  <path d="M15 3H7C5.9 3 5 3.9 5 5V21C5 22.1 5.9 23 7 23H19C20.1 23 21 22.1 21 21V9L15 3Z" 
        fill="#000000" fill-opacity="0.1"/>
  
  <!-- Documento base -->
  <path d="M14 2H6C4.9 2 4 2.9 4 4V20C4 21.1 4.9 22 6 22H18C19.1 22 20 21.1 20 20V8L14 2Z" 
        fill="url(#docGradient)" stroke="#6B46C1" stroke-width="0.5"/>
  
  <!-- Dobra do documento -->
  <path d="M14 2V8H20" stroke="#6B46C1" stroke-width="1" fill="none"/>
  <path d="M14 8H20L14 2V8Z" fill="#FFFFFF" fill-opacity="0.2"/>
  
  <!-- Linhas do documento -->
  <line x1="7" y1="10" x2="13" y2="10" stroke="#FFFFFF" stroke-width="1" stroke-opacity="0.6"/>
  <line x1="7" y1="12" x2="17" y2="12" stroke="#FFFFFF" stroke-width="1" stroke-opacity="0.4"/>
  <line x1="7" y1="17" x2="15" y2="17" stroke="#FFFFFF" stroke-width="1" stroke-opacity="0.4"/>
  <line x1="7" y1="19" x2="12" y2="19" stroke="#FFFFFF" stroke-width="1" stroke-opacity="0.3"/>
  
  <!-- Círculo de check com sombra -->
  <circle cx="16" cy="16" r="3.5" fill="#000000" fill-opacity="0.1"/>
  <circle cx="15.5" cy="15.5" r="3" fill="url(#checkGradient)" stroke="#22C55E" stroke-width="0.5"/>
  
  <!-- Check mark -->
  <path d="M13.5 15.5L14.5 16.5L17.5 13.5" stroke="white" stroke-width="2" fill="none" stroke-linecap="round" stroke-linejoin="round"/>
</svg>